<?xml version="1.0" standalone="yes"?>
<svg xmlns="http://www.w3.org/2000/svg" width="400" height="400">
<path style="fill:#010101; stroke:none;" d="M0 0L0 400L400 400L400 0L0 0z"/>
<path style="fill:#701426; stroke:none;" d="M206 37L206 38L260 38L242 37L206 37z"/>
<path style="fill:#26f4ee; stroke:none;" d="M206 38L206 187C206 210.873 209.271 237.427 205.561 261C200.4 293.785 167.789 307.808 139 296C157.274 330.935 211.978 314.366 220.335 281C226.264 257.326 222 228.345 222 204L222 51L262 51L261 38L206 38z"/>
<path style="fill:#fefefe; stroke:none;" d="M222 51L222 200C222 223.886 225.245 250.41 221.561 274C216.947 303.539 186.392 323.52 158 311.124C139.554 303.07 118.049 282.283 114.464 262C108.371 227.532 142.438 205.073 173 211L173 168C152.953 170.534 134.89 174.603 118 186.438C72.5307 218.301 56.8924 295.969 101.09 336.79C142.81 375.323 215.574 353.902 243.996 311C254.756 294.759 259.011 277.122 260.83 258C264.347 221.04 261 182.142 261 145C285.788 158.748 308.21 168 337 168L337 138C337 134.868 338.024 129.37 335.972 126.728C331.847 121.413 317.107 118.7 311 114.644C288.254 99.5383 267.672 78.407 262 51L222 51z"/>
<path style="fill:#701426; stroke:none;" d="M262 51L262 52L277 52L262 51z"/>
<path style="fill:#fc2d55; stroke:none;" d="M262 52C265.56 69.201 275.825 91.7279 293 99C284.287 83.3495 277 70.4181 277 52L262 52z"/>
<path style="fill:#701426; stroke:none;" d="M277 60L277 64L278 64L277 60M278.333 67.6667L278.667 68.3333L278.333 67.6667M279.333 71.6667L279.667 72.3333L279.333 71.6667M280.333 74.6667L280.667 75.3333L280.333 74.6667M281 77L282 78L281 77M282 80L283 81L282 80M283 82L284 83L283 82M284 84L285 85L284 84M285 86L286 87L285 86M286 88L287 89L286 88M287 90L288 91L287 90M289 93L290 94L289 93M291 96L292 97L291 96M292 97L293 98L292 97M293 99L294 100L293 99M294 100L295 101L294 100z"/>
<path style="fill:#26f4ee; stroke:none;" d="M295 101L296 102L295 101M296 102L297 103L296 102M297 103C305.932 115.245 322.48 122.995 337 126L337 114L297 103z"/>
<path style="fill:#701426; stroke:none;" d="M332.667 113.333L333.333 113.667L332.667 113.333z"/>
<path style="fill:#fc2d55; stroke:none;" d="M337 126L337 168C318.562 168 300.953 164.633 284 157.138C276.082 153.638 269.032 148.04 261 145C261 209.968 277.204 294.137 217 337.842C209.122 343.561 200.281 348.03 191 350.971C179.426 354.64 167.134 356.492 155 355.961C136.02 355.13 122.092 346.257 105 340C112.545 350.49 126.236 357.63 138 362.396C185.477 381.628 241.078 361.32 265.11 316C276.944 293.684 276 270.436 276 246L276 158C300.924 171.824 323.929 182 353 182L353 128L337 126z"/>
<path style="fill:#701426; stroke:none;" d="M339 126L339 127L342 127L339 126M346 127L346 128L353 128L346 127M154.667 154.333L155.333 154.667L154.667 154.333z"/>
<path style="fill:#26f4ee; stroke:none;" d="M98 334C94.8489 326.509 89.0227 320.305 85.3704 313C79.3209 300.901 76.443 287.37 75.1698 274C71.2169 232.491 100.539 192.737 137 176.312C148.619 171.077 160.705 170.283 173 168L173 155C140.986 154.979 111.759 159.734 88.0895 184.039C57.2035 215.755 51.1668 262.923 70.7531 302C76.682 313.829 85.9772 327.763 98 334z"/>
<path style="fill:#701426; stroke:none;" d="M163 154L163 155L166 155L163 154M144 155L145 156L144 155M173 156L174 169L175 169L173 156M131 158L132 159L131 158M276 158L276 278L277 278L277 199L278 158L276 158M125 160L126 161L125 160M280 160L281 161L280 160M122 161L123 162L122 161M120 162L121 163L120 162M283 162L284 163L283 162M285 163L286 164L285 163M286 164L287 165L286 164M288 165L289 166L288 165M290 166L291 167L290 166M292 167L293 168L292 167M108 168L109 169L108 168z"/>
<path style="fill:#fc2d55; stroke:none;" d="M173 168L173 211C156.692 206.781 138.362 210.542 126.439 223.174C107.004 243.763 110.515 281.807 137 295C133.42 283.467 128.477 274.645 130.3 262C134.313 234.164 163.101 218.299 189 225L189 169L173 168z"/>
<path style="fill:#701426; stroke:none;" d="M178 168L178 169L186 169L178 168M294 168L295 169L294 168M189 169L189 225L190 225L190 187L189 169M296 169L297 170L296 169M298 170L299 171L298 170M300 171L301 172L300 171M302.667 172.333L303.333 172.667L302.667 172.333M305 173L306 174L305 173M99 174L100 175L99 174M307.667 174.333L308.333 174.667L307.667 174.333M310.667 175.333L311.333 175.667L310.667 175.333M313.667 176.333L314.333 176.667L313.667 176.333M316.667 177.333L317.333 177.667L316.667 177.333M94 178L95 179L94 178M320.667 178.333L321.333 178.667L320.667 178.333M93 179L94 180L93 179M324 179L324 180L327 180L324 179M329 180L329 181L332 181L329 180M335 181L335 182L340 182L335 181M346 182L346 183L353 183L346 182M84 188L85 189L84 188M83 189L84 190L83 189M79 194L80 195L79 194M168 223L168 224L172 224L168 223M180 223L180 224L183 224L180 223M164 224L165 225L164 224M186.667 224.333L187.333 224.667L186.667 224.333M161 225L162 226L161 225M158 226L159 227L158 226M156 227L157 228L156 227M154 228L155 229L154 228M152 229L153 230L152 229M150 230L151 231L150 230M149 231L150 232L149 231M61 233L62 234L61 233M146 233L147 234L146 233M145 234L146 235L145 234M144 235L145 236L144 235M143 236L144 237L143 236M142 237L143 238L142 237M60 238L61 239L60 238M141 238L142 239L141 238M140 239L141 240L140 239M138 242L139 243L138 242M137 243L138 244L137 243M136 245L137 246L136 245M59 246L60 247L59 246M134 248L135 249L134 248M133 251L134 252L133 251M132 253L133 254L132 253M131.333 256.667L131.667 257.333L131.333 256.667M130 260L130 263L131 263L130 260M205 261L206 262L205 261M59.3333 263.667L59.6667 264.333L59.3333 263.667M204 266L205 267L204 266M130 275L130 278L131 278L130 275M131.333 280.667L131.667 281.333L131.333 280.667M275 283L275 286L276 286L275 283M63 284L64 285L63 284M132 284L133 285L132 284M195 284L196 285L195 284M194 285L195 286L194 285M133 286L134 287L133 286M64 287L65 288L64 287M134 289L135 290L134 289M190 289L191 290L190 289M274.333 289.667L274.667 290.333L274.333 289.667M65 290L66 291L65 290M189 290L190 291L189 290M136 292L137 293L136 292M185 293L186 294L185 293M273.333 293.667L273.667 294.333L273.333 293.667M137 294L138 295L137 294M67 295L68 296L67 295M138 295L139 296L138 295M68 297L69 298L68 297M272.333 297.667L272.667 298.333L272.333 297.667M175 298L176 299L175 298M69 299L70 300L69 299M147 299L148 300L147 299M172 299L173 300L172 299M271.333 300.667L271.667 301.333L271.333 300.667M70 301L71 302L70 301M71 303L72 304L71 303M270 303L271 304L270 303M269 306L270 307L269 306M268 308L269 309L268 308M267.333 310.667L267.667 311.333L267.333 310.667M266 313L267 314L266 313M78 314L79 315L78 314M265 315L266 316L265 315M81 318L82 319L81 318M263 318L264 319L263 318M262 320L263 321L262 320M261 322L262 323L261 322M260 323L261 324L260 323M259 325L260 326L259 325M258 326L259 327L258 326M256 329L257 330L256 329M255 330L256 331L255 330M96 333L97 334L96 333M253 333L254 334L253 333z"/>
<path style="fill:#26f4ee; stroke:none;" d="M98 334L99 335L98 334z"/>
<path style="fill:#701426; stroke:none;" d="M252 334L253 335L252 334z"/>
<path style="fill:#26f4ee; stroke:none;" d="M99 335L100 336L99 335z"/>
<path style="fill:#701426; stroke:none;" d="M251 335L252 336L251 335M100 336L101 337L100 336M250 336L251 337L250 336M101 337L102 338L101 337z"/>
<path style="fill:#fc2d55; stroke:none;" d="M104 339L105 340L104 339z"/>
<path style="fill:#701426; stroke:none;" d="M243 343L244 344L243 343M242 344L243 345L242 344M241 345L242 346L241 345M111 346L112 347L111 346M240 346L241 347L240 346M112 347L113 348L112 347M113 348L114 349L113 348M236 349L237 350L236 349M116 350L117 351L116 350M235 350L236 351L235 350M117 351L118 352L117 351M119 352L120 353L119 352M232 352L233 353L232 352M120 353L121 354L120 353M122 354L123 355L122 354M229 354L230 355L229 354M227 355L228 356L227 355M125 356L126 357L125 356M226 356L227 357L226 356M127 357L128 358L127 357M224 357L225 358L224 357M129 358L130 359L129 358M222 358L223 359L222 358M131 359L132 360L131 359M220 359L221 360L220 359M133 360L134 361L133 360M218 360L219 361L218 360M135 361L136 362L135 361M216 361L217 362L216 361M137.667 362.333L138.333 362.667L137.667 362.333M213 362L214 363L213 362M140 363L141 364L140 363M211 363L212 364L211 363M142.667 364.333L143.333 364.667L142.667 364.333M208 364L209 365L208 364M145.667 365.333L146.333 365.667L145.667 365.333M205 365L206 366L205 365M149.667 366.333L150.333 366.667L149.667 366.333M201.667 366.333L202.333 366.667L201.667 366.333M153.667 367.333L154.333 367.667L153.667 367.333M197.667 367.333L198.333 367.667L197.667 367.333M157 368L157 369L160 369L157 368M191 368L191 369L194 369L191 368M164 369L164 370L170 370L164 369M182 369L182 370L187 370L182 369z"/>
</svg>
